<svg width="585" height="509" viewBox="0 0 585 509" fill="none" xmlns="http://www.w3.org/2000/svg">
<circle cx="426.5" cy="194.5" r="158.5" fill="#FCEEE5"/>
<path d="M530.612 509L490.024 117L410.612 509H530.612Z" fill="#FF7115"/>
<path d="M521.612 509L489.457 117L410.612 509H521.612Z" fill="black"/>
<path d="M23.2351 125.931H488.28L466.103 508.002H1.05803L23.2351 125.931Z" fill="white" stroke="black" stroke-width="2"/>
<rect x="0.942087" y="0.998322" width="41.2613" height="41.2613" rx="9" transform="matrix(1 0 -0.0579125 0.998322 36.1257 252.737)" fill="white" stroke="black" stroke-width="2"/>
<rect x="0.942087" y="0.998322" width="41.2613" height="41.2613" rx="9" transform="matrix(1 0 -0.0579125 0.998322 32.3933 317.08)" fill="white" stroke="black" stroke-width="2"/>
<rect x="0.942087" y="0.998322" width="41.2613" height="41.2613" rx="9" transform="matrix(1 0 -0.0579125 0.998322 28.6608 381.422)" fill="white" stroke="black" stroke-width="2"/>
<rect x="0.942087" y="0.998322" width="41.2613" height="41.2613" rx="9" transform="matrix(1 0 -0.0579125 0.998322 24.9284 445.764)" fill="white" stroke="black" stroke-width="2"/>
<rect x="0.942087" y="0.998322" width="41.2613" height="41.2613" rx="9" transform="matrix(1 0 -0.0579125 0.998322 99.6931 252.737)" fill="white" stroke="black" stroke-width="2"/>
<rect x="0.942087" y="0.998322" width="41.2613" height="41.2613" rx="9" transform="matrix(1 0 -0.0579125 0.998322 95.9606 317.08)" fill="white" stroke="black" stroke-width="2"/>
<rect x="0.942087" y="0.998322" width="41.2613" height="41.2613" rx="9" transform="matrix(1 0 -0.0579125 0.998322 92.2282 381.422)" fill="white" stroke="black" stroke-width="2"/>
<rect x="0.942087" y="0.998322" width="41.2613" height="41.2613" rx="9" transform="matrix(1 0 -0.0579125 0.998322 88.4958 445.764)" fill="white" stroke="black" stroke-width="2"/>
<rect x="0.942087" y="0.998322" width="41.2613" height="41.2613" rx="9" transform="matrix(1 0 -0.0579125 0.998322 163.26 252.737)" fill="white" stroke="black" stroke-width="2"/>
<rect x="0.942087" y="0.998322" width="41.2613" height="41.2613" rx="9" transform="matrix(1 0 -0.0579125 0.998322 159.528 317.08)" fill="white" stroke="black" stroke-width="2"/>
<rect x="0.942087" y="0.998322" width="41.2613" height="41.2613" rx="9" transform="matrix(1 0 -0.0579125 0.998322 155.796 381.422)" fill="white" stroke="black" stroke-width="2"/>
<rect x="0.942087" y="0.998322" width="41.2613" height="41.2613" rx="9" transform="matrix(1 0 -0.0579125 0.998322 152.063 445.764)" fill="white" stroke="black" stroke-width="2"/>
<rect x="0.942087" y="0.998322" width="41.2613" height="41.2613" rx="9" transform="matrix(1 0 -0.0579125 0.998322 230.561 188.395)" fill="white" stroke="black" stroke-width="2"/>
<rect x="0.942087" y="0.998322" width="41.2613" height="41.2613" rx="9" transform="matrix(1 0 -0.0579125 0.998322 290.396 252.737)" fill="white" stroke="black" stroke-width="2"/>
<rect x="0.942087" y="0.998322" width="41.2613" height="41.2613" rx="9" transform="matrix(1 0 -0.0579125 0.998322 226.828 252.737)" fill="white" stroke="black" stroke-width="2"/>
<rect x="0.942087" y="0.998322" width="41.2613" height="41.2613" rx="9" transform="matrix(1 0 -0.0579125 0.998322 219.363 381.422)" fill="white" stroke="black" stroke-width="2"/>
<rect x="0.942087" y="0.998322" width="41.2613" height="41.2613" rx="9" transform="matrix(1 0 -0.0579125 0.998322 215.631 445.764)" fill="white" stroke="black" stroke-width="2"/>
<rect x="0.942087" y="0.998322" width="41.2613" height="41.2613" rx="9" transform="matrix(1 0 -0.0579125 0.998322 294.128 188.395)" fill="white" stroke="black" stroke-width="2"/>
<rect width="43.2613" height="43.2613" rx="10" transform="matrix(1 0 -0.0579125 0.998322 223.038 317.078)" fill="#FF7115"/>
<rect x="0.942087" y="0.998322" width="41.2613" height="41.2613" rx="9" transform="matrix(1 0 -0.0579125 0.998322 286.663 317.08)" fill="white" stroke="black" stroke-width="2"/>
<rect x="0.942087" y="0.998322" width="41.2613" height="41.2613" rx="9" transform="matrix(1 0 -0.0579125 0.998322 282.931 381.422)" fill="white" stroke="black" stroke-width="2"/>
<rect x="0.942087" y="0.998322" width="41.2613" height="41.2613" rx="9" transform="matrix(1 0 -0.0579125 0.998322 279.198 445.764)" fill="white" stroke="black" stroke-width="2"/>
<rect width="43.2613" height="43.2613" rx="10" transform="matrix(1 0 -0.0579125 0.998322 357.638 188.394)" fill="black"/>
<rect width="43.2613" height="43.2613" rx="10" transform="matrix(1 0 -0.0579125 0.998322 353.906 252.736)" fill="black"/>
<rect width="43.2613" height="43.2613" rx="10" transform="matrix(1 0 -0.0579125 0.998322 350.173 317.078)" fill="black"/>
<rect width="43.2613" height="43.2613" rx="10" transform="matrix(1 0 -0.0579125 0.998322 346.441 381.42)" fill="black"/>
<rect width="43.2613" height="43.2613" rx="10" transform="matrix(1 0 -0.0579125 0.998322 421.206 188.394)" fill="black"/>
<rect width="43.2613" height="43.2613" rx="10" transform="matrix(1 0 -0.0579125 0.998322 417.473 252.736)" fill="black"/>
<rect width="43.2613" height="43.2613" rx="10" transform="matrix(1 0 -0.0579125 0.998322 413.741 317.078)" fill="black"/>
<rect width="43.2613" height="43.2613" rx="10" transform="matrix(1 0 -0.0579125 0.998322 410.008 381.42)" fill="black"/>
<path d="M22.7524 117H490L486.883 167.24H19.838L22.7524 117Z" fill="#FF7115"/>
<circle cx="250.5" cy="11.5" r="10.5" stroke="black" stroke-width="2"/>
<circle cx="53" cy="36" r="7" stroke="black" stroke-width="2"/>
<circle cx="560" cy="305" r="7" stroke="black" stroke-width="2"/>
<circle cx="165.5" cy="50.5" r="4.5" fill="#FF7115"/>
<circle cx="48.5" cy="218.5" r="4.5" fill="#FF7115"/>
<circle cx="539.5" cy="196.5" r="8.5" fill="#FF7115"/>
<circle cx="310.5" cy="34.5" r="5.5" fill="black"/>
<circle cx="578" cy="41" r="5" fill="black"/>
<circle cx="402.5" cy="116.5" r="8.5" fill="black"/>
<rect x="0.942087" y="0.998322" width="41.2613" height="41.2613" rx="9" transform="matrix(1 0 -0.0579125 0.998322 178.563 90.0017)" fill="white" stroke="black" stroke-width="2"/>
</svg>
