<?xml version="1.0" encoding="utf-8"?>
<!-- Generator: Adobe Illustrator 24.3.0, SVG Export Plug-In . SVG Version: 6.00 Build 0)  -->
<svg version="1.1" id="Layer_1" xmlns="http://www.w3.org/2000/svg" xmlns:xlink="http://www.w3.org/1999/xlink" x="0px" y="0px"
	 viewBox="0 0 585 509" style="enable-background:new 0 0 585 509;" xml:space="preserve">
<style type="text/css">
	.st0{fill:#FCEEE5;}
	.st1{fill:#FF7115;}
	.st2{fill:#FFFFFF;stroke:#000000;stroke-width:2;}
	.st3{fill:none;stroke:#000000;stroke-width:2;}
	.st4{fill-rule:evenodd;clip-rule:evenodd;fill:#4460A0;}
	.st5{opacity:0.15;}
	.st6{fill:url(#SVGID_1_);}
	.st7{opacity:0.38;}
	.st8{fill:url(#SVGID_2_);}
	.st9{fill-rule:evenodd;clip-rule:evenodd;fill:#007EBB;}
	.st10{fill-rule:evenodd;clip-rule:evenodd;fill:#FFFFFF;}
	.st11{opacity:0.25;}
</style>
<circle class="st0" cx="426.5" cy="194.5" r="158.5"/>
<path class="st1" d="M530.6,509L490,117l-79.4,392H530.6z"/>
<path d="M521.6,509l-32.2-392l-78.8,392H521.6z"/>
<path class="st2" d="M23.2,125.9h465L466.1,508H1.1L23.2,125.9z"/>
<path class="st2" d="M46,253.7h23.3c5,0,8.8,4,8.5,9l-1.3,23.2c-0.3,5-4.6,9-9.5,9H43.6c-5,0-8.8-4-8.5-9l1.3-23.2
	C36.8,257.8,41,253.7,46,253.7z"/>
<path class="st2" d="M42.3,318.1h23.3c5,0,8.8,4,8.5,9l-1.3,23.2c-0.3,5-4.6,9-9.5,9H39.9c-5,0-8.8-4-8.5-9l1.3-23.2
	C33,322.1,37.3,318.1,42.3,318.1z"/>
<path class="st2" d="M38.5,382.4h23.3c5,0,8.8,4,8.5,9l-1.3,23.2c-0.3,5-4.6,9-9.5,9H36.2c-5,0-8.8-4-8.5-9l1.3-23.2
	C29.3,386.4,33.6,382.4,38.5,382.4z"/>
<path class="st2" d="M34.8,446.8h23.3c5,0,8.8,4,8.5,9L65.2,479c-0.3,5-4.6,9-9.5,9H32.4c-5,0-8.8-4-8.5-9l1.3-23.2
	C25.6,450.8,29.8,446.8,34.8,446.8z"/>
<path class="st2" d="M109.6,253.7h23.3c5,0,8.8,4,8.5,9l-1.3,23.2c-0.3,5-4.6,9-9.5,9h-23.3c-5,0-8.8-4-8.5-9l1.3-23.2
	C100.3,257.8,104.6,253.7,109.6,253.7z"/>
<path class="st2" d="M105.8,318.1h23.3c5,0,8.8,4,8.5,9l-1.3,23.2c-0.3,5-4.6,9-9.5,9h-23.3c-5,0-8.8-4-8.5-9l1.3-23.2
	C96.6,322.1,100.9,318.1,105.8,318.1z"/>
<path class="st2" d="M102.1,382.4h23.3c5,0,8.8,4,8.5,9l-1.3,23.2c-0.3,5-4.6,9-9.5,9H99.7c-5,0-8.8-4-8.5-9l1.3-23.2
	C92.9,386.4,97.1,382.4,102.1,382.4z"/>
<path class="st2" d="M98.4,446.8h23.3c5,0,8.8,4,8.5,9l-1.3,23.2c-0.3,5-4.6,9-9.5,9H96c-5,0-8.8-4-8.5-9l1.3-23.2
	C89.1,450.8,93.4,446.8,98.4,446.8z"/>
<path class="st2" d="M173.1,253.7h23.3c5,0,8.8,4,8.5,9l-1.3,23.2c-0.3,5-4.6,9-9.5,9h-23.3c-5,0-8.8-4-8.5-9l1.3-23.2
	C163.9,257.8,168.2,253.7,173.1,253.7z"/>
<path class="st2" d="M169.4,318.1h23.3c5,0,8.8,4,8.5,9l-1.3,23.2c-0.3,5-4.6,9-9.5,9H167c-5,0-8.8-4-8.5-9l1.3-23.2
	C160.2,322.1,164.4,318.1,169.4,318.1z"/>
<path class="st2" d="M165.7,382.4h23.3c5,0,8.8,4,8.5,9l-1.3,23.2c-0.3,5-4.6,9-9.5,9h-23.3c-5,0-8.8-4-8.5-9l1.3-23.2
	C156.4,386.4,160.7,382.4,165.7,382.4z"/>
<path class="st2" d="M161.9,446.8h23.3c5,0,8.8,4,8.5,9l-1.3,23.2c-0.3,5-4.6,9-9.5,9h-23.3c-5,0-8.8-4-8.5-9l1.3-23.2
	C152.7,450.8,157,446.8,161.9,446.8z"/>
<path class="st2" d="M240.4,189.4h23.3c5,0,8.8,4,8.5,9l-1.3,23.2c-0.3,5-4.6,9-9.5,9h-23.3c-5,0-8.8-4-8.5-9l1.3-23.2
	C231.2,193.4,235.5,189.4,240.4,189.4z"/>
<path class="st2" d="M300.3,253.7h23.3c5,0,8.8,4,8.5,9l-1.3,23.2c-0.3,5-4.6,9-9.5,9h-23.3c-5,0-8.8-4-8.5-9l1.3-23.2
	C291,257.8,295.3,253.7,300.3,253.7z"/>
<path class="st2" d="M236.7,253.7H260c5,0,8.8,4,8.5,9l-1.3,23.2c-0.3,5-4.6,9-9.5,9h-23.3c-5,0-8.8-4-8.5-9l1.3-23.2
	C227.5,257.8,231.7,253.7,236.7,253.7z"/>
<path class="st2" d="M229.2,382.4h23.3c5,0,8.8,4,8.5,9l-1.3,23.2c-0.3,5-4.6,9-9.5,9h-23.3c-5,0-8.8-4-8.5-9l1.3-23.2
	C220,386.4,224.3,382.4,229.2,382.4z"/>
<path class="st2" d="M225.5,446.8h23.3c5,0,8.8,4,8.5,9l-1.3,23.2c-0.3,5-4.6,9-9.5,9h-23.3c-5,0-8.8-4-8.5-9l1.3-23.2
	C216.3,450.8,220.5,446.8,225.5,446.8z"/>
<path class="st2" d="M304,189.4h23.3c5,0,8.8,4,8.5,9l-1.3,23.2c-0.3,5-4.6,9-9.5,9h-23.3c-5,0-8.8-4-8.5-9l1.3-23.2
	C294.8,193.4,299,189.4,304,189.4z"/>
<path class="st1" d="M233,317.1h23.3c5.5,0,9.7,4.5,9.4,10l-1.3,23.2c-0.3,5.5-5.1,10-10.6,10h-23.3c-5.5,0-9.7-4.5-9.4-10l1.3-23.2
	C222.8,321.5,227.5,317.1,233,317.1z"/>
<path class="st2" d="M296.5,318.1h23.3c5,0,8.8,4,8.5,9l-1.3,23.2c-0.3,5-4.6,9-9.5,9h-23.3c-5,0-8.8-4-8.5-9l1.3-23.2
	C287.3,322.1,291.6,318.1,296.5,318.1z"/>
<path class="st2" d="M292.8,382.4h23.3c5,0,8.8,4,8.5,9l-1.3,23.2c-0.3,5-4.6,9-9.5,9h-23.3c-5,0-8.8-4-8.5-9l1.3-23.2
	C283.6,386.4,287.8,382.4,292.8,382.4z"/>
<path class="st2" d="M289.1,446.8h23.3c5,0,8.8,4,8.5,9l-1.3,23.2c-0.3,5-4.6,9-9.5,9h-23.3c-5,0-8.8-4-8.5-9l1.3-23.2
	C279.8,450.8,284.1,446.8,289.1,446.8z"/>
<path d="M367.6,188.4h23.3c5.5,0,9.7,4.5,9.4,10l-1.3,23.2c-0.3,5.5-5.1,10-10.6,10h-23.3c-5.5,0-9.7-4.5-9.4-10l1.3-23.2
	C357.4,192.9,362.1,188.4,367.6,188.4z"/>
<path d="M363.9,252.7h23.3c5.5,0,9.7,4.5,9.4,10l-1.3,23.2c-0.3,5.5-5.1,10-10.6,10h-23.3c-5.5,0-9.7-4.5-9.4-10l1.3-23.2
	C353.6,257.2,358.4,252.7,363.9,252.7z"/>
<path d="M360.2,317.1h23.3c5.5,0,9.7,4.5,9.4,10l-1.3,23.2c-0.3,5.5-5.1,10-10.6,10h-23.3c-5.5,0-9.7-4.5-9.4-10l1.3-23.2
	C349.9,321.5,354.7,317.1,360.2,317.1z"/>
<path d="M356.4,381.4h23.3c5.5,0,9.7,4.5,9.4,10l-1.3,23.2c-0.3,5.5-5.1,10-10.6,10h-23.3c-5.5,0-9.7-4.5-9.4-10l1.3-23.2
	C346.2,385.9,350.9,381.4,356.4,381.4z"/>
<path d="M431.2,188.4h23.3c5.5,0,9.7,4.5,9.4,10l-1.3,23.2c-0.3,5.5-5.1,10-10.6,10h-23.3c-5.5,0-9.7-4.5-9.4-10l1.3-23.2
	C420.9,192.9,425.7,188.4,431.2,188.4z"/>
<path d="M427.5,252.7h23.3c5.5,0,9.7,4.5,9.4,10l-1.3,23.2c-0.3,5.5-5.1,10-10.6,10H425c-5.5,0-9.7-4.5-9.4-10l1.3-23.2
	C417.2,257.2,422,252.7,427.5,252.7z"/>
<path d="M423.7,317.1H447c5.5,0,9.7,4.5,9.4,10l-1.3,23.2c-0.3,5.5-5.1,10-10.6,10h-23.3c-5.5,0-9.7-4.5-9.4-10l1.3-23.2
	C413.5,321.5,418.2,317.1,423.7,317.1z"/>
<path d="M420,381.4h23.3c5.5,0,9.7,4.5,9.4,10l-1.3,23.2c-0.3,5.5-5.1,10-10.6,10h-23.3c-5.5,0-9.7-4.5-9.4-10l1.3-23.2
	C409.7,385.9,414.5,381.4,420,381.4z"/>
<path class="st1" d="M22.8,117H490l-3.1,50.2h-467L22.8,117z"/>
<circle class="st3" cx="250.5" cy="11.5" r="10.5"/>
<circle class="st3" cx="53" cy="36" r="7"/>
<circle class="st3" cx="560" cy="305" r="7"/>
<circle class="st1" cx="165.5" cy="50.5" r="4.5"/>
<circle class="st1" cx="48.5" cy="218.5" r="4.5"/>
<circle class="st1" cx="539.5" cy="196.5" r="8.5"/>
<circle cx="310.5" cy="34.5" r="5.5"/>
<circle cx="578" cy="41" r="5"/>
<circle cx="402.5" cy="116.5" r="8.5"/>
<path class="st2" d="M188.4,91h23.3c5,0,8.8,4,8.5,9l-1.3,23.2c-0.3,5-4.6,9-9.5,9h-23.3c-5,0-8.8-4-8.5-9l1.3-23.2
	C179.2,95,183.5,91,188.4,91z"/>
<g id="Page-1">
	<g id="Social-Icons---Isolated" transform="translate(-176.000000, -55.000000)">
		<path id="Facebook" class="st4" d="M752.7,269.6v14.5l-8.6,0c-6.7,0-8,3.2-8,7.9v10.4h16l-2.1,16.2h-14v42.2h-16.7v-42.2h-14
			v-16.2h14v-12c0-13.9,8.5-21.4,20.9-21.4C746.1,269,751.2,269.4,752.7,269.6z"/>
	</g>
</g>
<g id="Page-1_1_" class="st5">
	<g id="Social-Icons---Isolated_1_" transform="translate(-176.000000, -55.000000)">
		<path id="Facebook_1_" class="st4" d="M323.7,132.3v3.9l-2.3,0c-1.8,0-2.2,0.9-2.2,2.1v2.8h4.3l-0.6,4.4h-3.8v11.4h-4.5v-11.4
			h-3.8v-4.4h3.8V138c0-3.7,2.3-5.8,5.6-5.8C321.9,132.2,323.3,132.3,323.7,132.3z"/>
	</g>
</g>
<g>
	
		<linearGradient id="SVGID_1_" gradientUnits="userSpaceOnUse" x1="358.1815" y1="434.9955" x2="446.5461" y2="510.237" gradientTransform="matrix(1 0 0 -1 0 510)">
		<stop  offset="1.100000e-03" style="stop-color:#FFE185"/>
		<stop  offset="0.2094" style="stop-color:#FFBB36"/>
		<stop  offset="0.3765" style="stop-color:#FF5176"/>
		<stop  offset="0.5238" style="stop-color:#F63395"/>
		<stop  offset="0.7394" style="stop-color:#A436D2"/>
		<stop  offset="1" style="stop-color:#5F4EED"/>
	</linearGradient>
	<path class="st6" d="M403.1,31.2c-2,0-3.6,1.6-3.6,3.6c0,2,1.6,3.6,3.6,3.6c2,0,3.6-1.6,3.6-3.6C406.7,32.8,405.1,31.2,403.1,31.2z
		 M387.1,35.8c-8.3,0-15.1,6.8-15.1,15.1S378.7,66,387.1,66s15.1-6.8,15.1-15.1S395.4,35.8,387.1,35.8z M387.1,60.6
		c-5.3,0-9.7-4.3-9.7-9.7c0-5.3,4.3-9.7,9.7-9.7c5.3,0,9.7,4.3,9.7,9.7C396.7,56.2,392.4,60.6,387.1,60.6z M417.6,38.3
		c0-10.2-8.3-18.4-18.4-18.4h-24.3c-10.2,0-18.4,8.3-18.4,18.4v24.3c0,10.2,8.3,18.4,18.4,18.4h24.3c10.2,0,18.4-8.3,18.4-18.4V38.3
		z M411.8,62.7c0,7-5.7,12.7-12.7,12.7h-24.3c-7,0-12.7-5.7-12.7-12.7V38.3c0-7,5.7-12.7,12.7-12.7h24.3c7,0,12.7,5.7,12.7,12.7
		V62.7L411.8,62.7z"/>
</g>
<g class="st7">
	
		<linearGradient id="SVGID_2_" gradientUnits="userSpaceOnUse" x1="527.2259" y1="464.7908" x2="564.9138" y2="496.8817" gradientTransform="matrix(1 0 0 -1 0 510)">
		<stop  offset="1.100000e-03" style="stop-color:#FFE185"/>
		<stop  offset="0.2094" style="stop-color:#FFBB36"/>
		<stop  offset="0.3765" style="stop-color:#FF5176"/>
		<stop  offset="0.5238" style="stop-color:#F63395"/>
		<stop  offset="0.7394" style="stop-color:#A436D2"/>
		<stop  offset="1" style="stop-color:#5F4EED"/>
	</linearGradient>
	<path class="st8" d="M546.4,26.5c-0.8,0-1.5,0.7-1.5,1.5c0,0.8,0.7,1.5,1.5,1.5c0.8,0,1.5-0.7,1.5-1.5
		C547.9,27.2,547.2,26.5,546.4,26.5z M539.5,28.5c-3.6,0-6.4,2.9-6.4,6.4s2.9,6.4,6.4,6.4s6.4-2.9,6.4-6.4S543.1,28.5,539.5,28.5z
		 M539.5,39.1c-2.3,0-4.1-1.9-4.1-4.1c0-2.3,1.9-4.1,4.1-4.1c2.3,0,4.1,1.9,4.1,4.1C543.7,37.2,541.8,39.1,539.5,39.1z M552.6,29.6
		c0-4.3-3.5-7.9-7.9-7.9h-10.4c-4.3,0-7.9,3.5-7.9,7.9v10.4c0,4.3,3.5,7.9,7.9,7.9h10.4c4.3,0,7.9-3.5,7.9-7.9V29.6z M550.1,39.9
		c0,3-2.4,5.4-5.4,5.4h-10.4c-3,0-5.4-2.4-5.4-5.4V29.6c0-3,2.4-5.4,5.4-5.4h10.4c3,0,5.4,2.4,5.4,5.4V39.9L550.1,39.9z"/>
</g>
<g id="Page-1_2_">
	<g id="Social-Icons---Rounded" transform="translate(-376.000000, -267.000000)">
		<g id="Linkedin" transform="translate(376.000000, 267.000000)">
			<path id="Rounded" class="st9" d="M44,100.3h38.8c3.1,0,5.5-2.5,5.5-5.5V56c0-3.1-2.5-5.5-5.5-5.5H44c-3.1,0-5.5,2.5-5.5,5.5
				v38.8C38.4,97.8,40.9,100.3,44,100.3z"/>
			<path class="st10" d="M81.4,93.3H74V80.7c0-3.5-1.3-5.4-4-5.4c-3,0-4.5,2-4.5,5.4v12.6h-7.1v-24h7.1v3.2c0,0,2.1-4,7.2-4
				c5.1,0,8.7,3.1,8.7,9.5V93.3z M49.8,66.2c-2.4,0-4.4-2-4.4-4.4c0-2.4,2-4.4,4.4-4.4s4.4,2,4.4,4.4C54.2,64.2,52.2,66.2,49.8,66.2
				z M46.1,93.3h7.4v-24h-7.4V93.3z"/>
		</g>
	</g>
</g>
<g id="Page-1_3_" class="st11">
	<g id="Social-Icons---Rounded_1_" transform="translate(-376.000000, -267.000000)">
		<g id="Linkedin_1_" transform="translate(376.000000, 267.000000)">
			<path id="Rounded_1_" class="st9" d="M544,411.8h21.4c1.7,0,3.1-1.4,3.1-3.1v-21.4c0-1.7-1.4-3.1-3.1-3.1H544
				c-1.7,0-3.1,1.4-3.1,3.1v21.4C540.9,410.4,542.3,411.8,544,411.8z"/>
			<path class="st10" d="M564.7,407.9h-4.1v-7c0-1.9-0.7-3-2.2-3c-1.6,0-2.5,1.1-2.5,3v7h-3.9v-13.3h3.9v1.8c0,0,1.2-2.2,4-2.2
				c2.8,0,4.8,1.7,4.8,5.3V407.9z M547.2,392.9c-1.3,0-2.4-1.1-2.4-2.4s1.1-2.4,2.4-2.4c1.3,0,2.4,1.1,2.4,2.4
				S548.5,392.9,547.2,392.9z M545.2,407.9h4.1v-13.3h-4.1V407.9z"/>
		</g>
	</g>
</g>
</svg>
